<?xml version="1.0" encoding="UTF-8" standalone="no"?>
<!-- Created with Inkscape (http://www.inkscape.org/) -->

<svg
   version="1.1"
   id="svg2"
   width="5163.9731"
   height="5163.9731"
   viewBox="0 0 5163.9731 5163.9731"
   sodipodi:docname="vecteezy_computer-to-mobile-vector-icon-design_19957859.eps"
   xmlns:inkscape="http://www.inkscape.org/namespaces/inkscape"
   xmlns:sodipodi="http://sodipodi.sourceforge.net/DTD/sodipodi-0.dtd"
   xmlns="http://www.w3.org/2000/svg"
   xmlns:svg="http://www.w3.org/2000/svg">
  <defs
     id="defs6" />
  <sodipodi:namedview
     id="namedview4"
     pagecolor="#ffffff"
     bordercolor="#000000"
     borderopacity="0.25"
     inkscape:showpageshadow="2"
     inkscape:pageopacity="0.0"
     inkscape:pagecheckerboard="0"
     inkscape:deskcolor="#d1d1d1" />
  <g
     id="g8"
     inkscape:groupmode="layer"
     inkscape:label="ink_ext_XXXXXX"
     transform="matrix(1.3333333,0,0,-1.3333333,0,5163.9733)">
    <g
       id="g10"
       transform="scale(0.1)">
      <path
         d="m 19364.9,38729.8 v 0 c 10650.7,0 19364.9,-8714.2 19364.9,-19364.9 v 0 C 38729.8,8714.2 30015.6,0 19364.9,0 V 0 C 8714.25,0 0,8714.2 0,19364.9 v 0 c 0,10650.7 8714.25,19364.9 19364.9,19364.9"
         style="fill:#aedcd6;fill-opacity:1;fill-rule:evenodd;stroke:none"
         id="path12" />
      <path
         d="m 19364.9,37039.6 v 0 c 9721.1,0 17674.8,-7953.5 17674.8,-17674.7 v 0 C 37039.7,9643.8 29086,1690.1 19364.9,1690.1 v 0 c -9721.15,0 -17674.72,7953.7 -17674.72,17674.8 v 0 c 0,9721.2 7953.57,17674.7 17674.72,17674.7"
         style="fill:#47afa3;fill-opacity:1;fill-rule:evenodd;stroke:none"
         id="path14" />
      <path
         d="m 22812.6,11040.7 h -3660.1 c -329.8,0 -597.2,267.5 -597.2,597.2 v 3280.5 c 0,329.8 267.4,597.3 597.2,597.3 h 3660.1 c 329.8,0 597.3,-267.5 597.3,-597.3 v -3280.5 c 0,-329.7 -267.5,-597.2 -597.3,-597.2"
         style="fill:#1e2126;fill-opacity:1;fill-rule:evenodd;stroke:none"
         id="path16" />
      <path
         d="M 29449.4,14320.8 H 12515.5 c -1273.3,0 -2308.8,1040.5 -2308.8,2319.1 v 10476.6 c 0,1279.1 1035.5,2319.6 2309,2319.6 5449.1,0 11481.8,-0.3 16933.7,-0.3 1273.4,0 2309.1,-1040.4 2309.1,-2319.5 V 16640.1 c 0,-1279 -1035.5,-2319.3 -2309.1,-2319.3"
         style="fill:#1e2126;fill-opacity:1;fill-rule:evenodd;stroke:none"
         id="path18" />
      <path
         d="M 27010.5,9293.6 H 14954.9 c -329.8,0 -597.2,267.3 -597.2,597 v 1747.1 c 0,329.8 267.4,597.1 597.2,597.1 h 12055.6 c 330,0 597.3,-267.3 597.3,-597.1 V 9890.6 c -0.4,-329.7 -267.7,-597 -597.3,-597"
         style="fill:#474d53;fill-opacity:1;fill-rule:evenodd;stroke:none"
         id="path20" />
      <path
         d="m 12515.5,28241.5 c -614.6,0 -1114.8,-504.5 -1114.8,-1125.2 V 16640.1 c 0,-620.3 500.3,-1124.8 1114.8,-1124.8 h 16933.9 c 614.8,0 1114.8,504.3 1114.8,1124.6 l 0.2,10476.6 c 0,620.5 -500.2,1125.2 -1114.8,1125.2 -1616.3,0 -15315.6,-0.2 -16934.1,-0.2"
         style="fill:#69b0ee;fill-opacity:1;fill-rule:evenodd;stroke:none"
         id="path22" />
      <path
         d="m 10206.7,16639.9 c 0,-1278.6 1035.5,-2319.1 2308.8,-2319.1 h 6039.8 4854.6 6039.5 c 1273.6,0 2309.1,1040.3 2309.1,2319.3 v 339 H 10206.7 v -339.2"
         style="fill:#474d53;fill-opacity:1;fill-rule:evenodd;stroke:none"
         id="path24" />
      <path
         d="m 26911.2,16400 c 414.1,0 750,-335.9 750,-750 0,-414 -335.9,-749.9 -750,-749.9 -414.1,0 -749.9,335.9 -749.9,749.9 0,413.9 336,750 749.9,750"
         style="fill:#1e2126;fill-opacity:1;fill-rule:evenodd;stroke:none"
         id="path26" />
      <path
         d="m 26911.2,15263.9 c 212.8,0 386.1,173.6 386.1,386.1 0,212.8 -173.3,386.1 -386.1,386.1 -212.5,0 -386.1,-173.3 -386.1,-386.1 0,-212.5 173.6,-386.1 386.1,-386.1"
         style="fill:#dce1eb;fill-opacity:1;fill-rule:evenodd;stroke:none"
         id="path28" />
      <path
         d="m 22608,27472.4 h 0.2 c 124.7,-71.9 167.6,-232.6 95.7,-357.3 L 17942,18867.3 c -71.9,-124.7 -232.8,-167.9 -357.4,-95.8 v 0 c -124.7,72 -167.7,232.7 -95.8,357.4 l 4762,8247.9 c 71.9,124.6 232.7,167.6 357.2,95.6"
         style="fill:#beddf7;fill-opacity:1;fill-rule:evenodd;stroke:none"
         id="path30" />
      <path
         d="m 24380.5,26449.1 h 0.2 c 124.5,-72 167.6,-232.7 95.5,-357.3 l -4761.8,-8247.9 c -71.9,-124.7 -232.9,-167.8 -357.4,-95.7 v 0 c -124.7,71.9 -167.7,232.6 -95.8,357.3 l 4761.9,8247.9 c 71.9,124.7 232.7,167.6 357.4,95.7"
         style="fill:#beddf7;fill-opacity:1;fill-rule:evenodd;stroke:none"
         id="path32" />
      <path
         d="m 7590.33,17801 h -439.29 c -98.79,0 -179.66,80.9 -179.66,179.6 v 873.3 c 0,98.9 80.96,179.6 179.66,179.6 h 439.29 V 17801"
         style="fill:#1e2126;fill-opacity:1;fill-rule:evenodd;stroke:none"
         id="path34" />
      <path
         d="m 15673.4,20525.7 h 439.2 c 98.9,0 179.7,-80.8 179.7,-179.6 v -873.3 c 0,-98.8 -80.9,-179.6 -179.7,-179.6 h -439.2 v 1232.5"
         style="fill:#1e2126;fill-opacity:1;fill-rule:evenodd;stroke:none"
         id="path36" />
      <path
         d="m 15673.4,17801 h 439.2 c 98.9,0 179.7,80.9 179.7,179.6 v 873.3 c 0,98.9 -80.9,179.6 -179.7,179.6 h -439.2 V 17801"
         style="fill:#1e2126;fill-opacity:1;fill-rule:evenodd;stroke:none"
         id="path38" />
      <path
         d="M 14608.3,9293.6 H 8655.45 c -704.93,0 -1278.47,573.4 -1278.47,1278.2 v 10732.8 c 0,705 573.54,1278.5 1278.47,1278.5 h 5952.85 c 704.9,0 1278.5,-573.6 1278.5,-1278.5 V 10571.8 c 0,-704.8 -573.5,-1278.2 -1278.5,-1278.2"
         style="fill:#333940;fill-opacity:1;fill-rule:evenodd;stroke:none"
         id="path40" />
      <path
         d="m 14608.3,9682.8 c 490,0 889.1,398.9 889.1,889 v 10732.8 c 0,490.1 -399.1,889.2 -889.1,889.2 H 8655.45 c -490.02,0 -889.12,-399.1 -889.12,-889.2 V 10571.8 c 0,-489.9 399.1,-889 889.12,-889 h 5952.85"
         style="fill:#69b0ee;fill-opacity:1;fill-rule:evenodd;stroke:none"
         id="path42" />
      <path
         d="m 7376.98,10571.8 c 0,-704.8 573.54,-1278.2 1278.47,-1278.2 h 5952.85 c 705,0 1278.5,573.4 1278.5,1278.2 v 443.9 H 7376.98 v -443.9"
         style="fill:#333940;fill-opacity:1;fill-rule:evenodd;stroke:none"
         id="path44" />
      <path
         d="m 12479.2,9770.1 h -1694.7 c -212.2,0 -384.5,172.4 -384.5,384.5 0,212.4 172.3,384.5 384.5,384.5 h 1694.7 c 212.3,0 384.5,-172.1 384.5,-384.5 0,-212.1 -172.2,-384.5 -384.5,-384.5"
         style="fill:#1e2126;fill-opacity:1;fill-rule:evenodd;stroke:none"
         id="path46" />
      <path
         d="m 12479.2,9977.9 h -1694.7 c -97.7,0 -176.9,79 -176.9,176.7 0,97.7 79.2,176.9 176.9,176.9 h 1694.7 c 97.7,0 176.9,-79.2 176.9,-176.9 0,-97.7 -79.2,-176.7 -176.9,-176.7"
         style="fill:#dce1eb;fill-opacity:1;fill-rule:evenodd;stroke:none"
         id="path48" />
      <path
         d="m 12780,19326.3 v 0 c 106.3,-61.4 143,-198.4 81.7,-304.8 L 9576.58,13331.7 c -61.37,-106.4 -198.37,-143 -304.65,-81.8 v 0 c -106.37,61.5 -143.01,198.4 -81.75,304.8 l 3285.22,5689.8 c 61.3,106.4 198.5,143.1 304.6,81.8"
         style="fill:#beddf7;fill-opacity:1;fill-rule:evenodd;stroke:none"
         id="path50" />
      <path
         d="m 13991.8,18626.8 v 0 c 106.3,-61.5 143,-198.6 81.7,-304.8 l -3285.1,-5690 c -61.4,-106.2 -198.4,-143.1 -304.8,-81.6 v 0 c -106.3,61.3 -143,198.4 -81.6,304.6 l 3285.2,5690 c 61.3,106.4 198.3,143 304.6,81.8"
         style="fill:#beddf7;fill-opacity:1;fill-rule:evenodd;stroke:none"
         id="path52" />
      <path
         d="m 7376.98,21304.7 c 0,704.9 573.54,1278.4 1278.47,1278.4 h 5952.85 c 705,0 1278.5,-573.5 1278.5,-1278.4 v -443.9 H 7376.98 v 443.9"
         style="fill:#333940;fill-opacity:1;fill-rule:evenodd;stroke:none"
         id="path54" />
      <path
         d="m 9037.02,22583.1 h 5189.68 c -3.8,-7.4 -8.2,-14.6 -13.4,-21.5 L 13493,21313.8 c -33.4,-45.8 -86.3,-72.8 -142.9,-72.8 H 9913.53 c -56.54,0 -109.73,27.1 -142.82,72.8 l -720.29,1247.8 c -5.03,6.9 -9.46,14.1 -13.4,21.5"
         style="fill:#1e2126;fill-opacity:1;fill-rule:evenodd;stroke:none"
         id="path56" />
      <path
         d="m 11631.9,21440.5 c 259.8,0 471.6,211.8 471.6,471.6 0,259.7 -211.8,471.6 -471.6,471.6 -259.8,0 -471.6,-211.9 -471.6,-471.6 0,-259.8 211.8,-471.6 471.6,-471.6"
         style="fill:#595f64;fill-opacity:1;fill-rule:evenodd;stroke:none"
         id="path58" />
      <path
         d="m 11631.9,21630.4 c 155.2,0 281.7,126.4 281.7,281.7 0,155.1 -126.5,281.7 -281.7,281.7 -155.1,0 -281.7,-126.6 -281.7,-281.7 0,-155.3 126.6,-281.7 281.7,-281.7"
         style="fill:#dce1eb;fill-opacity:1;fill-rule:evenodd;stroke:none"
         id="path60" />
    </g>
  </g>
</svg>
